<svg xmlns="http://www.w3.org/2000/svg" viewBox="0 0 100 100" width="200" height="200"><path fill="#fefdef" d="M82 63.613V36.387a8.417 8.417 0 0 0-4.211-7.293L54.211 15.48a8.422 8.422 0 0 0-8.421 0L22.211 29.094A8.421 8.421 0 0 0 18 36.387v27.227a8.421 8.421 0 0 0 4.211 7.293L45.789 84.52a8.422 8.422 0 0 0 8.421 0l23.579-13.613A8.42 8.42 0 0 0 82 63.613"/><path fill="#444445" d="M76.843 33.356 53.346 46.411A6.502 6.502 0 0 0 50 52.096v30.022c0 1.812 1.948 2.959 3.534 2.079l25.434-14.131a8.393 8.393 0 0 0 2.032-2.5V35.804c0-2.134-2.292-3.485-4.157-2.448z"/><path fill="#fefdef" d="M60.092 52.778c.189-.096.345.022.347.269l.02 2.021c.845-.335 1.58-.426 2.247-.271.145.037.209.234.15.468l-.445 1.79a.785.785 0 0 1-.202.357.523.523 0 0 1-.118.088.272.272 0 0 1-.175.029c-.305-.069-1.027-.227-2.164.349-1.192.605-1.61 1.64-1.602 2.408.01.92.482 1.199 2.109 1.228 2.168.035 3.104.984 3.126 3.165.024 2.146-1.122 4.448-2.873 5.858l.039 2.003c.002.241-.153.517-.344.613l-1.186.682c-.189.096-.345-.022-.347-.263l-.02-1.969c-1.016.423-2.043.524-2.7.261-.125-.049-.179-.232-.128-.441l.429-1.809a.75.75 0 0 1 .212-.376.448.448 0 0 1 .111-.081c.067-.034.133-.042.19-.02.707.237 1.612.126 2.484-.315 1.105-.559 1.846-1.688 1.834-2.809-.01-1.016-.561-1.438-1.9-1.448-1.704.003-3.293-.33-3.32-2.84-.022-2.067 1.053-4.216 2.754-5.575l-.02-2.02c-.002-.248.15-.52.344-.62l1.148-.732z"/><path fill="#4da925" d="m71.572 68.64-5.704 3.185a.164.164 0 0 1-.244-.143V70.43c0-.113.061-.217.16-.273l5.704-3.185a.166.166 0 0 1 .246.145v1.248a.314.314 0 0 1-.162.275"/><path fill="#1f212b" d="M44 78.213a.494.494 0 0 1-.25-.067l-2-1.155a.5.5 0 0 1 .5-.866l2 1.155a.5.5 0 0 1-.25.933zm-4-2.309a.494.494 0 0 1-.25-.067l-11.093-6.404a.5.5 0 0 1 .5-.866l11.093 6.404a.5.5 0 0 1-.25.933zm-13-7.506a.494.494 0 0 1-.25-.067l-2.105-1.215a4.302 4.302 0 0 1-2.145-3.715V46a.5.5 0 0 1 1 0v17.401a3.3 3.3 0 0 0 1.645 2.849l2.105 1.215a.5.5 0 0 1-.25.933zM23 44.5a.5.5 0 0 1-.5-.5v-3a.5.5 0 0 1 1 0v3a.5.5 0 0 1-.5.5zm0-5a.5.5 0 0 1-.5-.5v-2.4a.5.5 0 0 1 1 0V39a.5.5 0 0 1-.5.5z"/><path fill="#1f212b" d="m77.855 28.553-23.21-13.399c-2.816-1.627-6.466-1.629-9.29 0l-23.211 13.4A9.318 9.318 0 0 0 17.5 36.6v26.802a9.314 9.314 0 0 0 4.645 8.045l23.212 13.4a9.313 9.313 0 0 0 4.644 1.245 9.309 9.309 0 0 0 4.645-1.245l23.211-13.4a9.314 9.314 0 0 0 4.645-8.045V36.6a9.323 9.323 0 0 0-4.647-8.047zm-31.5 54.561-23.211-13.4a7.309 7.309 0 0 1-3.645-6.312V36.6a7.311 7.311 0 0 1 3.645-6.314l23.211-13.399a7.295 7.295 0 0 1 7.29 0l23.211 13.399a7.274 7.274 0 0 1 2.529 2.465c-.907-.355-1.911-.317-2.785.169L53.104 45.974a7.006 7.006 0 0 0-3.604 6.122v30.022c0 .738.282 1.417.763 1.939-1.354.047-2.722-.259-3.908-.943zm30.5-13.4-23.211 13.4c-.6.346-1.249.591-1.918.749-.101-.038-.204-.072-.3-.129a1.86 1.86 0 0 1-.926-1.617V52.096a6.006 6.006 0 0 1 3.09-5.248l23.496-13.054a2.291 2.291 0 0 1 1.116-.292 2.269 2.269 0 0 1 2.075 1.348c.141.567.223 1.153.223 1.75v26.802a7.304 7.304 0 0 1-3.645 6.312z"/></svg>