<svg xmlns="http://www.w3.org/2000/svg" width="699" height="699"><path style="fill:#eed94d" d="M0 350.5V1h699v699H0V350.5zm306 291.886c42.035-7.265 67.352-34.144 72.977-77.482.566-4.36.974-56.02.992-125.654L380 321h-65l-.017 111.75c-.01 66.885-.416 115.537-1.011 121.184-1.97 18.702-8.962 27.804-23.771 30.943-20.975 4.446-36.596-3.97-49.42-26.627-1.635-2.888-3.444-5.25-4.022-5.25-.946 0-50.097 29.28-52.09 31.032-2.079 1.826 10.37 20.867 20.073 30.705 23.831 24.16 61.668 34.49 101.258 27.649zm251.5.515c26.73-3.369 48.515-13.696 64.485-30.567 6.544-6.913 9.002-10.457 12.958-18.683 6.496-13.507 8.105-20.34 8.748-37.151 1.164-30.428-6.876-51.948-26.361-70.562-13.967-13.343-31.578-23.649-64.83-37.942-34.103-14.658-44.594-21.361-49.592-31.686-3.471-7.17-3.292-18.01.424-25.577 5.503-11.207 16.125-16.383 31.787-15.49 14.924.85 25.33 7.143 34.417 20.81l4.532 6.819 22.9-14.686c12.594-8.077 24.052-15.586 25.462-16.686l2.562-2-5.646-8.369c-14.154-20.981-32.886-34.3-56.552-40.212-11.953-2.985-38.775-3.758-51.794-1.492-21.448 3.733-36.629 11.255-50.6 25.073-12.647 12.508-19.485 25.026-23.028 42.157-2.495 12.068-1.49 34.974 2.052 46.794 9.06 30.219 29.412 49.691 71.239 68.156 8.16 3.603 20.904 9.233 28.32 12.513 29.879 13.215 39.342 22.687 39.342 39.38 0 15.444-9.836 26.191-28.396 31.028-9.941 2.59-28.901 1.675-39.312-1.898-14.188-4.869-27.778-15.825-37.118-29.922-2.693-4.063-4.296-5.616-5.374-5.202-3.1 1.19-52.125 29.911-52.125 30.538 0 2.293 15.096 22.802 21.585 29.325 28.776 28.927 71.612 41.62 119.915 35.532z" transform="translate(0 -1)"/><path style="fill:#31322f" d="M270.5 643.853c-25.666-1.887-49.16-12.29-65.758-29.116-9.704-9.838-22.152-28.879-20.073-30.705 1.993-1.751 51.144-31.032 52.09-31.032.578 0 2.387 2.362 4.022 5.25 12.824 22.656 28.445 31.073 49.42 26.627 14.809-3.14 21.801-12.241 23.77-30.943.595-5.647 1.001-54.299 1.012-121.184L315 321h65l-.03 118.25c-.02 69.634-.427 121.294-.993 125.654-7.114 54.81-46.538 83.503-108.477 78.95zm252.432.071c-43.964-3.057-78.247-21.844-100.053-54.828-3.784-5.722-6.879-10.696-6.879-11.052 0-.627 49.025-29.349 52.125-30.538 1.078-.414 2.681 1.139 5.374 5.202 9.34 14.097 22.93 25.053 37.118 29.922 10.411 3.573 29.37 4.488 39.312 1.898 18.56-4.837 28.396-15.584 28.396-31.028 0-16.693-9.463-26.165-39.342-39.38-7.416-3.28-20.16-8.91-28.32-12.513-41.827-18.465-62.18-37.937-71.239-68.156-3.543-11.82-4.547-34.726-2.052-46.794 3.543-17.131 10.38-29.65 23.028-42.157 13.971-13.818 29.152-21.34 50.6-25.073 13.02-2.266 39.841-1.493 51.794 1.492 23.666 5.911 42.398 19.231 56.552 40.212l5.646 8.369-2.562 2c-1.41 1.1-12.868 8.609-25.462 16.686l-22.9 14.686-4.532-6.819c-9.086-13.667-19.493-19.96-34.417-20.81-15.662-.893-26.284 4.283-31.787 15.49-2.393 4.874-2.819 6.944-2.747 13.36.203 18.133 8.724 25.339 51.915 43.903 33.252 14.293 50.863 24.6 64.83 37.942 19.485 18.614 27.525 40.134 26.36 70.562-.642 16.81-2.251 23.644-8.747 37.151-16.76 34.852-59.29 53.94-112.01 50.273z" transform="translate(0 -1)"/></svg>