<svg xmlns="http://www.w3.org/2000/svg" viewBox="0 0 49.74 49.74"><g data-name="Calque 2"><g data-name="Calque 6"><path class="cls-1" d="M24.87 0a24.87 24.87 0 1 0 24.87 24.87A24.86 24.86 0 0 0 24.87 0Zm0 46.24a21.37 21.37 0 1 1 21.37-21.37 21.4 21.4 0 0 1-21.37 21.37Z"/><path class="cls-1" d="M35.31 12.21h-8.54a2.58 2.58 0 0 0-2.58 2.58v4.84a2.57 2.57 0 0 0 2.58 2.58h4.47v1.63a.51.51 0 0 0 .51.51.46.46 0 0 0 .37-.17l1.75-2h1.48a2.57 2.57 0 0 0 2.58-2.58v-4.81a2.58 2.58 0 0 0-2.62-2.58ZM37 19.63a1.66 1.66 0 0 1-1.66 1.66h-1.92l-.28.31-1 1.12v-1.43h-5.37a1.66 1.66 0 0 1-1.66-1.66v-4.84a1.66 1.66 0 0 1 1.66-1.66h8.54A1.66 1.66 0 0 1 37 14.79Z"/><path class="cls-1" d="M31 16.49a.81.81 0 0 0-.81.81.82.82 0 0 0 .81.82.82.82 0 0 0 .82-.82.82.82 0 0 0-.82-.81Zm3.5 0a.81.81 0 0 0-.81.81.82.82 0 0 0 .81.82.82.82 0 0 0 .82-.82.82.82 0 0 0-.82-.81Zm-6.92 0a.81.81 0 0 0-.81.81.81.81 0 1 0 1.62 0 .81.81 0 0 0-.81-.81ZM33.51 30c-2.5-2.19-3.28-1.9-5.11-1.27-.93.33-2.25 2.92-3.65 2.25A13.73 13.73 0 0 1 21 27.89a14.28 14.28 0 0 1-3-3.71c-.66-1.4 1.93-2.72 2.26-3.65.63-1.83.92-2.61-1.27-5.11-1.94-2.23-4.24-3.07-6.08-1.79s-3 4.51-3.21 5.47c-1 3.63 2.43 9.06 6.78 13.4s9.77 7.79 13.4 6.78c1-.19 4.19-1.37 5.47-3.21s.39-4.14-1.84-6.07Z"/></g></g></svg>