<svg xmlns="http://www.w3.org/2000/svg" viewBox="0 0 49.14 49.23"><defs/><g id="Calque_2" data-name="Calque 2"><g id="Calque_6" data-name="Calque 6"><path class="cls-1" d="M24.59 3.94h.16a20.57 20.57 0 0 1 14.54 35 20.45 20.45 0 0 1-14.42 6.21h-.28a20.6 20.6 0 0 1-10.67-3 4 4 0 0 0-2.05-.58 3.81 3.81 0 0 0-1.25.21l-5 1.68 1.62-5.26a3.92 3.92 0 0 0-.38-3.17A20.62 20.62 0 0 1 24.59 3.94m0-3.94A24.63 24.63 0 0 0 .05 24.08a24.37 24.37 0 0 0 3.43 13L0 48.21a.78.78 0 0 0 .74 1 .8.8 0 0 0 .26 0l10.83-3.63a24.44 24.44 0 0 0 12.72 3.54h.34A24.55 24.55 0 0 0 24.78 0Z"/><path class="cls-1" d="M28.36 32.1V20.66a.93.93 0 0 0-.93-.93h-7.65a.93.93 0 0 0-.93.93v3.85a.94.94 0 0 0 .93.94.92.92 0 0 1 .93.93v5.72a.93.93 0 0 1-.93.93.93.93 0 0 0-.93.93v4.09a.93.93 0 0 0 .93.93h9.58a.93.93 0 0 0 .93-.93V34a.93.93 0 0 0-.93-.93h-.07a.93.93 0 0 1-.93-.97Z"/><circle class="cls-1" cx="23.83" cy="13.85" r="3.76"/></g></g></svg>