<svg xmlns="http://www.w3.org/2000/svg" viewBox="0 0 49.74 49.74"><defs/><g id="Calque_2" data-name="Calque 2"><g id="Calque_6" data-name="Calque 6"><circle class="cls-1" cx="24.87" cy="18.98" r="8.76"/><path class="cls-1" d="m42.93 42 .21-.23c.29-.31.58-.63.85-1 .29-.35.57-.71.84-1.07l.11-.15c.22-.31.44-.61.65-.93l.2-.32c.17-.26.34-.53.5-.8s.14-.26.22-.38l.43-.8c.06-.13.13-.26.2-.39s.27-.57.4-.86c0-.12.11-.23.16-.35.17-.38.32-.77.46-1.16a.3.3 0 0 0 0-.08c.15-.42.29-.85.43-1.28 0-.12.06-.24.1-.36.09-.31.18-.62.25-.94 0-.16.08-.32.11-.47s.13-.57.18-.86.07-.34.1-.51.09-.58.12-.86.05-.35.07-.52.06-.62.08-.94v-3.12c-.05-.85-.13-1.69-.26-2.51a24.87 24.87 0 0 0-49.16 0c-.02.79-.1 1.63-.18 2.48v3.1c0 .31 0 .62.08.92s.05.35.07.52l.19.87c0 .18.06.35.1.53s.1.54.16.81l.12.5c.07.28.14.56.22.83s.08.31.13.46c.09.31.2.62.3.92 0 .11.07.22.11.33.15.42.31.83.49 1.24v.06c.16.38.33.76.51 1.13.06.11.12.22.17.33.14.28.29.56.44.83l.22.38c.15.25.29.5.45.75l.24.38.5.73.25.35c.18.25.37.49.56.74l.23.28c.24.3.49.6.75.89l.09.1c.3.33.61.65.92 1 .3.29.6.58.92.86l.24.21.75.63.11.1.38.29.1.07.18.14.09.07h.05l.39.27.09.06c.49.34 1 .67 1.51 1h.13l.38.21.1.06h.1l.18.1h.08l.11.06.37.19h.19c.31.16.63.31 1 .45l.19.09h.1l.15.06.16.06.17.08.33.12.2.08h.31l.22.07.31.11.22.07h.14l.27.09h.14l.27.08.27.08.28.07H18.71l.29.07.27.06.3.07H20l.33.06h.24l.41.07h.12l.56.08H28.07l.57-.08h.12l.41-.07h.24l.33-.06h.22l.3-.07.27-.06.28-.07.19.6h.12l.27-.07.28-.08.26-.07.14-.05.28-.09h.14l.22-.07.31-.11.21-.07h.32l.2-.08.33-.12.17-.07.16-.07.15-.06h.09l.19-.09c.33-.14.64-.29 1-.45h.18l.38-.19.1-.06h.08l.19-.1h.1l.1-.06.37-.21h.13q1-.59 1.92-1.26l.08-.05.09-.07.18-.13.09-.08.17-.14c.27-.21.54-.42.79-.64l.29-.25.71-.65.28-.26ZM24.87 29.86a15.55 15.55 0 0 0-14.65 10.52 21.37 21.37 0 1 1 29.3 0 15.56 15.56 0 0 0-14.65-10.52Z"/></g></g></svg>