<svg xmlns="http://www.w3.org/2000/svg" viewBox="0 0 49.74 49.74"><defs/><g id="Calque_2" data-name="Calque 2"><g id="Calque_6" data-name="Calque 6"><path class="cls-1" d="M31.93 18.05 20.7 17a.73.73 0 0 0-.13 1.46l11.23 1h.07a.72.72 0 0 0 .72-.66.74.74 0 0 0-.66-.75ZM31.67 21.24l-11.24-1a.73.73 0 1 0-.13 1.45l11.23 1h.07a.73.73 0 0 0 .07-1.45Z"/><path class="cls-1" d="M24.87 0a24.87 24.87 0 1 0 24.87 24.87A24.86 24.86 0 0 0 24.87 0Zm9 16.3 2.29.2-.65 8.21h-6.84a1.23 1.23 0 0 0-1.07.62l-1.9 3.33h-9.46l-.14-.28 1.45-16.14 16 1.48-.17 2a.55.55 0 0 0 .53.58ZM14.61 28.66h-.35A1.31 1.31 0 0 0 13 30v10.9a1 1 0 0 1-1-1V25.83h3l-.26 2.83ZM39.29 40.6V25.93a1.22 1.22 0 0 0-1.22-1.22H37l.65-8.24.09-1.15v-.27l-.19-.19-2.27-2.32-.15-.15h-.22l-1.26-.12-16-1.49h-.14a1.48 1.48 0 0 0-1.47 1.35L15 24.38h-3.29a1.28 1.28 0 0 0-1.28 1.28v14.23a2.48 2.48 0 0 0 .15.82 21.37 21.37 0 1 1 28.71-.11Z"/></g></g></svg>