<svg xmlns="http://www.w3.org/2000/svg" viewBox="0 0 49.74 49.74"><g data-name="Calque 2"><g data-name="Calque 6"><path class="cls-1" d="M24.87 0a24.87 24.87 0 1 0 24.87 24.87A24.86 24.86 0 0 0 24.87 0Zm0 46.24a21.37 21.37 0 1 1 21.37-21.37 21.4 21.4 0 0 1-21.37 21.37Z"/><path class="cls-1" d="M37.54 12.55H21.22a.81.81 0 0 0 0 1.62h16.32a.81.81 0 0 0 0-1.62ZM21.22 17.5h8.16a.81.81 0 1 0 0-1.61h-8.16a.81.81 0 0 0 0 1.61Zm16.32 4.89H21.22a.81.81 0 0 0 0 1.62h16.32a.81.81 0 0 0 0-1.62Zm-16.32 4.95h8.16a.81.81 0 1 0 0-1.61h-8.16a.81.81 0 0 0 0 1.61Zm16.32 4.89H21.22a.81.81 0 0 0 0 1.62h16.32a.81.81 0 0 0 0-1.62Zm-8.16 3.34h-8.16a.81.81 0 0 0 0 1.61h8.16a.81.81 0 1 0 0-1.61ZM17.83 17.39a1.38 1.38 0 0 0 .76-1.24v-2.24a1.38 1.38 0 0 0-.76-1.24l-2.47-1.23a1.4 1.4 0 0 0-1.23 0l-2.47 1.23a1.37 1.37 0 0 0-.77 1.24v2.24a1.37 1.37 0 0 0 .77 1.24l1.82.9v3.31l-1.82.91a1.37 1.37 0 0 0-.77 1.24V26a1.37 1.37 0 0 0 .77 1.24l1.82.9v3.31l-1.82.91a1.37 1.37 0 0 0-.77 1.24v2.24a1.37 1.37 0 0 0 .77 1.24l2.47 1.23a1.43 1.43 0 0 0 .61.14 1.51 1.51 0 0 0 .62-.14l2.47-1.23a1.38 1.38 0 0 0 .76-1.24v-2.25a1.38 1.38 0 0 0-.76-1.24l-1.74-.86v-3.4l1.74-.86a1.38 1.38 0 0 0 .76-1.23v-2.25a1.38 1.38 0 0 0-.76-1.24l-1.74-.86v-3.4ZM14.74 35.5a.79.79 0 0 1 0-1.58.79.79 0 0 1 0 1.58Zm0-9.84a.79.79 0 0 1 0-1.58.79.79 0 1 1 0 1.58Zm0-9.84a.79.79 0 0 1 0-1.58.79.79 0 0 1 0 1.58Z"/></g></g></svg>